<?xml version="1.0" standalone="no"?>
<!DOCTYPE svg PUBLIC "-//W3C//DTD SVG 20010904//EN"
 "http://www.w3.org/TR/2001/REC-SVG-20010904/DTD/svg10.dtd">
<svg version="1.0" xmlns="http://www.w3.org/2000/svg"
 width="95.000000pt" height="95.000000pt" viewBox="0 0 95.000000 95.000000"
 preserveAspectRatio="xMidYMid meet">
<metadata>
Created by potrace 1.11, written by Peter Selinger 2001-2013
</metadata>
<g transform="translate(0.000000,95.000000) scale(0.100000,-0.100000)"
fill="#000000" stroke="none">
<path d="M345 915 c-272 -64 -415 -358 -297 -610 63 -134 187 -226 335 -249
21 -3 48 -11 58 -17 16 -8 26 -7 45 6 32 21 32 59 -1 81 -22 14 -28 15 -48 2
-43 -28 -164 7 -235 68 -241 206 -144 597 163 662 213 45 424 -106 450 -323 8
-65 19 -79 47 -64 33 18 7 152 -46 244 -54 90 -176 180 -271 200 -58 12 -150
12 -200 0z"/>
<path d="M327 786 c-33 -14 -81 -46 -112 -75 -30 -28 -58 -51 -64 -51 -19 0
-23 -41 -7 -65 28 -43 89 -23 89 28 0 36 60 90 123 111 175 58 347 -71 340
-254 -5 -139 -105 -240 -244 -246 -69 -3 -115 12 -170 53 -56 42 -97 11 -48
-38 43 -44 114 -72 191 -77 281 -16 442 318 254 531 -85 98 -235 133 -352 83z"/>
<path d="M396 679 c-157 -37 -201 -256 -68 -345 47 -32 141 -60 160 -48 25 16
32 49 16 73 -18 25 -46 27 -78 6 -21 -14 -26 -13 -64 15 -113 82 -42 267 95
245 80 -12 128 -72 118 -145 -12 -83 -11 -94 7 -98 21 -4 45 32 52 82 21 132
-105 245 -238 215z"/>
<path d="M465 560 c22 -11 44 -20 49 -20 6 0 -6 9 -27 20 -20 11 -42 20 -49
20 -7 0 5 -9 27 -20z"/>
<path d="M388 556 c-36 -27 -14 -126 28 -126 4 0 -2 7 -14 16 -31 21 -31 87 0
108 12 9 18 16 13 16 -6 0 -18 -7 -27 -14z"/>
<path d="M425 550 c-3 -5 -1 -10 4 -10 6 0 11 5 11 10 0 6 -2 10 -4 10 -3 0
-8 -4 -11 -10z"/>
<path d="M468 532 c9 -10 19 -17 21 -16 6 5 -20 34 -30 34 -5 0 -1 -8 9 -18z"/>
<path d="M489 497 c-12 -24 -25 -34 -50 -38 l-34 -6 31 -2 c33 -1 78 39 72 64
-2 7 -10 -1 -19 -18z"/>
<path d="M392 500 c0 -14 2 -19 5 -12 2 6 2 18 0 25 -3 6 -5 1 -5 -13z"/>
<path d="M507 473 c-4 -3 -7 -11 -7 -17 0 -6 5 -5 12 2 6 6 9 14 7 17 -3 3 -9
2 -12 -2z"/>
<path d="M923 455 c0 -8 6 -15 14 -15 7 0 13 7 13 15 0 8 -6 15 -13 15 -8 0
-14 -7 -14 -15z"/>
<path d="M445 430 c-16 -7 -17 -9 -3 -9 9 -1 20 4 23 9 7 11 7 11 -20 0z"/>
<path d="M797 413 c-8 -10 -15 -34 -14 -53 2 -62 -84 -165 -173 -206 -40 -19
-50 -31 -43 -51 9 -24 60 -14 113 22 64 43 102 83 141 152 17 28 37 57 44 63
22 18 19 67 -4 80 -28 14 -46 12 -64 -7z"/>
</g>
</svg>
